<mxfile host="app.diagrams.net" modified="2020-12-11T12:38:03.575Z" agent="5.0 (Windows NT 10.0; Win64; x64) AppleWebKit/537.36 (KHTML, like Gecko) Chrome/87.0.4280.88 Safari/537.36" etag="XQqfe0_PUOcs1NAbRbHl" version="14.0.0" type="github">
  <diagram name="Page-1" id="dd472eb7-4b8b-5cd9-a60b-b15522922e76">
    <mxGraphModel dx="2893" dy="2160" grid="1" gridSize="10" guides="1" tooltips="1" connect="1" arrows="1" fold="1" page="1" pageScale="1" pageWidth="1100" pageHeight="850" background="#ffffff" math="0" shadow="0">
      <root>
        <mxCell id="0" />
        <mxCell id="1" parent="0" />
        <mxCell id="45236fa5f4b8e91a-1" value="Home" style="ellipse;whiteSpace=wrap;html=1;rounded=0;shadow=0;dashed=0;comic=0;fontFamily=Verdana;fontSize=22;fontColor=#0069D1;fillColor=#f5f5f5;strokeColor=#666666;" parent="1" vertex="1">
          <mxGeometry x="30" y="-30" width="160" height="160" as="geometry" />
        </mxCell>
        <mxCell id="45236fa5f4b8e91a-2" value="Page awal Ujian" style="ellipse;whiteSpace=wrap;html=1;rounded=0;shadow=0;dashed=0;comic=0;fontFamily=Verdana;fontSize=22;fontColor=#0069D1;fillColor=#f5f5f5;strokeColor=#666666;" parent="1" vertex="1">
          <mxGeometry x="910" y="420" width="160" height="160" as="geometry" />
        </mxCell>
        <mxCell id="45236fa5f4b8e91a-3" value="Konfirmasi akun" style="ellipse;whiteSpace=wrap;html=1;rounded=0;shadow=0;dashed=0;comic=0;fontFamily=Verdana;fontSize=22;fontColor=#0069D1;fillColor=#f5f5f5;strokeColor=#666666;" parent="1" vertex="1">
          <mxGeometry x="910" y="-30" width="160" height="160" as="geometry" />
        </mxCell>
        <mxCell id="45236fa5f4b8e91a-4" value="Status apl.01 &amp;amp; apl.02" style="ellipse;whiteSpace=wrap;html=1;rounded=0;shadow=0;dashed=0;comic=0;fontFamily=Verdana;fontSize=22;fontColor=#0069D1;fillColor=#f5f5f5;strokeColor=#666666;" parent="1" vertex="1">
          <mxGeometry x="600" y="420" width="160" height="160" as="geometry" />
        </mxCell>
        <mxCell id="45236fa5f4b8e91a-5" value="Detail informasii" style="ellipse;whiteSpace=wrap;html=1;rounded=0;shadow=0;dashed=0;comic=0;fontFamily=Verdana;fontSize=22;fontColor=#0069D1;fillColor=#f5f5f5;strokeColor=#666666;" parent="1" vertex="1">
          <mxGeometry x="910" y="190" width="160" height="160" as="geometry" />
        </mxCell>
        <mxCell id="45236fa5f4b8e91a-6" value="Pemilihan skema" style="ellipse;whiteSpace=wrap;html=1;rounded=0;shadow=0;dashed=0;comic=0;fontFamily=Verdana;fontSize=22;fontColor=#0069D1;fillColor=#f5f5f5;strokeColor=#666666;" parent="1" vertex="1">
          <mxGeometry x="300" y="-30" width="160" height="160" as="geometry" />
        </mxCell>
        <mxCell id="45236fa5f4b8e91a-7" value="invoice via email" style="ellipse;whiteSpace=wrap;html=1;rounded=0;shadow=0;dashed=0;comic=0;fontFamily=Verdana;fontSize=22;fontColor=#0069D1;fillColor=#f5f5f5;strokeColor=#666666;" parent="1" vertex="1">
          <mxGeometry x="610" y="190" width="160" height="160" as="geometry" />
        </mxCell>
        <mxCell id="45236fa5f4b8e91a-8" value="Lengkapi apl.02" style="ellipse;whiteSpace=wrap;html=1;rounded=0;shadow=0;dashed=0;comic=0;fontFamily=Verdana;fontSize=22;fontColor=#0069D1;fillColor=#f5f5f5;strokeColor=#666666;" parent="1" vertex="1">
          <mxGeometry x="300" y="420" width="160" height="160" as="geometry" />
        </mxCell>
        <mxCell id="q1sMRRUCjDqgYPKOwa1s-15" value="Berhasil Upload dan lanjut apl.01" style="ellipse;whiteSpace=wrap;html=1;rounded=0;shadow=0;dashed=0;comic=0;fontFamily=Verdana;fontSize=22;fontColor=#0069D1;fillColor=#f5f5f5;strokeColor=#666666;" parent="1" vertex="1">
          <mxGeometry x="30" y="190" width="160" height="160" as="geometry" />
        </mxCell>
        <mxCell id="q1sMRRUCjDqgYPKOwa1s-16" value="Login" style="ellipse;whiteSpace=wrap;html=1;rounded=0;shadow=0;dashed=0;comic=0;fontFamily=Verdana;fontSize=22;fontColor=#0069D1;fillColor=#f5f5f5;strokeColor=#666666;" parent="1" vertex="1">
          <mxGeometry x="600" y="-30" width="160" height="160" as="geometry" />
        </mxCell>
        <mxCell id="q1sMRRUCjDqgYPKOwa1s-26" value="Lengkapi apl.01" style="ellipse;whiteSpace=wrap;html=1;rounded=0;shadow=0;dashed=0;comic=0;fontFamily=Verdana;fontSize=22;fontColor=#0069D1;fillColor=#f5f5f5;strokeColor=#666666;" parent="1" vertex="1">
          <mxGeometry x="30" y="410" width="160" height="160" as="geometry" />
        </mxCell>
        <mxCell id="q1sMRRUCjDqgYPKOwa1s-31" value="" style="shape=flexArrow;endArrow=classic;html=1;entryX=0;entryY=0.5;entryDx=0;entryDy=0;" parent="1" source="45236fa5f4b8e91a-1" target="45236fa5f4b8e91a-6" edge="1">
          <mxGeometry width="50" height="50" relative="1" as="geometry">
            <mxPoint x="190" y="100" as="sourcePoint" />
            <mxPoint x="260.71067811865476" y="50" as="targetPoint" />
          </mxGeometry>
        </mxCell>
        <mxCell id="q1sMRRUCjDqgYPKOwa1s-32" value="Ada akun" style="shape=flexArrow;endArrow=classic;html=1;entryX=0;entryY=0.5;entryDx=0;entryDy=0;" parent="1" source="45236fa5f4b8e91a-6" target="q1sMRRUCjDqgYPKOwa1s-16" edge="1">
          <mxGeometry width="50" height="50" relative="1" as="geometry">
            <mxPoint x="460" y="100" as="sourcePoint" />
            <mxPoint x="530.7106781186548" y="50" as="targetPoint" />
            <Array as="points">
              <mxPoint x="530" y="50" />
            </Array>
          </mxGeometry>
        </mxCell>
        <mxCell id="q1sMRRUCjDqgYPKOwa1s-35" value="" style="shape=flexArrow;endArrow=classic;html=1;exitX=0.5;exitY=1;exitDx=0;exitDy=0;" parent="1" source="45236fa5f4b8e91a-3" target="45236fa5f4b8e91a-5" edge="1">
          <mxGeometry width="50" height="50" relative="1" as="geometry">
            <mxPoint x="990" y="170" as="sourcePoint" />
            <mxPoint x="1040" y="120" as="targetPoint" />
          </mxGeometry>
        </mxCell>
        <mxCell id="q1sMRRUCjDqgYPKOwa1s-38" value="" style="shape=flexArrow;endArrow=classic;html=1;" parent="1" source="45236fa5f4b8e91a-5" target="45236fa5f4b8e91a-7" edge="1">
          <mxGeometry width="50" height="50" relative="1" as="geometry">
            <mxPoint x="839.2893218813452" y="320" as="sourcePoint" />
            <mxPoint x="839.2893218813452" y="270" as="targetPoint" />
          </mxGeometry>
        </mxCell>
        <mxCell id="q1sMRRUCjDqgYPKOwa1s-39" value="" style="shape=flexArrow;endArrow=classic;html=1;" parent="1" source="45236fa5f4b8e91a-7" target="q1sMRRUCjDqgYPKOwa1s-47" edge="1">
          <mxGeometry width="50" height="50" relative="1" as="geometry">
            <mxPoint x="539.2893218813452" y="320" as="sourcePoint" />
            <mxPoint x="470" y="270" as="targetPoint" />
          </mxGeometry>
        </mxCell>
        <mxCell id="q1sMRRUCjDqgYPKOwa1s-41" value="" style="shape=flexArrow;endArrow=classic;html=1;exitX=0;exitY=0.5;exitDx=0;exitDy=0;" parent="1" target="q1sMRRUCjDqgYPKOwa1s-15" edge="1">
          <mxGeometry width="50" height="50" relative="1" as="geometry">
            <mxPoint x="300" y="274" as="sourcePoint" />
            <mxPoint x="190" y="274" as="targetPoint" />
          </mxGeometry>
        </mxCell>
        <mxCell id="q1sMRRUCjDqgYPKOwa1s-43" value="" style="shape=flexArrow;endArrow=classic;html=1;exitX=1.013;exitY=0.556;exitDx=0;exitDy=0;exitPerimeter=0;" parent="1" source="q1sMRRUCjDqgYPKOwa1s-26" target="45236fa5f4b8e91a-8" edge="1">
          <mxGeometry width="50" height="50" relative="1" as="geometry">
            <mxPoint x="240" y="370" as="sourcePoint" />
            <mxPoint x="110" y="410.71067811865476" as="targetPoint" />
          </mxGeometry>
        </mxCell>
        <mxCell id="q1sMRRUCjDqgYPKOwa1s-44" value="" style="shape=flexArrow;endArrow=classic;html=1;entryX=0;entryY=0.5;entryDx=0;entryDy=0;" parent="1" source="45236fa5f4b8e91a-8" target="45236fa5f4b8e91a-4" edge="1">
          <mxGeometry width="50" height="50" relative="1" as="geometry">
            <mxPoint x="190" y="540" as="sourcePoint" />
            <mxPoint x="240" y="490" as="targetPoint" />
          </mxGeometry>
        </mxCell>
        <mxCell id="q1sMRRUCjDqgYPKOwa1s-46" value="" style="shape=flexArrow;endArrow=classic;html=1;entryX=0;entryY=0.5;entryDx=0;entryDy=0;" parent="1" source="45236fa5f4b8e91a-4" target="45236fa5f4b8e91a-2" edge="1">
          <mxGeometry width="50" height="50" relative="1" as="geometry">
            <mxPoint x="463" y="550" as="sourcePoint" />
            <mxPoint x="533.7106781186548" y="500" as="targetPoint" />
          </mxGeometry>
        </mxCell>
        <mxCell id="q1sMRRUCjDqgYPKOwa1s-47" value="Upload bukti bayar" style="ellipse;whiteSpace=wrap;html=1;rounded=0;shadow=0;dashed=0;comic=0;fontFamily=Verdana;fontSize=22;fontColor=#0069D1;fillColor=#f5f5f5;strokeColor=#666666;" parent="1" vertex="1">
          <mxGeometry x="300" y="190" width="160" height="160" as="geometry" />
        </mxCell>
        <mxCell id="q1sMRRUCjDqgYPKOwa1s-51" value="" style="shape=flexArrow;endArrow=classic;html=1;" parent="1" source="q1sMRRUCjDqgYPKOwa1s-15" target="q1sMRRUCjDqgYPKOwa1s-26" edge="1">
          <mxGeometry width="50" height="50" relative="1" as="geometry">
            <mxPoint x="110" y="400" as="sourcePoint" />
            <mxPoint x="110" y="420.71067811865476" as="targetPoint" />
          </mxGeometry>
        </mxCell>
        <mxCell id="GTOpHmHQMbmmkZXh6cPo-1" value="Ujian" style="ellipse;whiteSpace=wrap;html=1;rounded=0;shadow=0;dashed=0;comic=0;fontFamily=Verdana;fontSize=22;fontColor=#0069D1;fillColor=#f5f5f5;strokeColor=#666666;" vertex="1" parent="1">
          <mxGeometry x="910" y="660" width="160" height="160" as="geometry" />
        </mxCell>
        <mxCell id="GTOpHmHQMbmmkZXh6cPo-3" value="" style="shape=flexArrow;endArrow=classic;html=1;entryX=0.5;entryY=0;entryDx=0;entryDy=0;" edge="1" parent="1" source="45236fa5f4b8e91a-2" target="GTOpHmHQMbmmkZXh6cPo-1">
          <mxGeometry width="50" height="50" relative="1" as="geometry">
            <mxPoint x="990" y="630" as="sourcePoint" />
            <mxPoint x="990" y="610" as="targetPoint" />
          </mxGeometry>
        </mxCell>
        <mxCell id="GTOpHmHQMbmmkZXh6cPo-4" value="Register" style="ellipse;whiteSpace=wrap;html=1;rounded=0;shadow=0;dashed=0;comic=0;fontFamily=Verdana;fontSize=22;fontColor=#0069D1;fillColor=#f5f5f5;strokeColor=#666666;" vertex="1" parent="1">
          <mxGeometry x="590" y="-230" width="160" height="160" as="geometry" />
        </mxCell>
        <mxCell id="GTOpHmHQMbmmkZXh6cPo-6" value="TIDAK ADA AKUN" style="shape=flexArrow;endArrow=classic;html=1;entryX=0;entryY=0.431;entryDx=0;entryDy=0;entryPerimeter=0;" edge="1" parent="1" target="GTOpHmHQMbmmkZXh6cPo-4">
          <mxGeometry width="50" height="50" relative="1" as="geometry">
            <mxPoint x="460" y="50" as="sourcePoint" />
            <mxPoint x="500" y="40" as="targetPoint" />
          </mxGeometry>
        </mxCell>
        <mxCell id="GTOpHmHQMbmmkZXh6cPo-8" value="" style="shape=flexArrow;endArrow=classic;html=1;entryX=0.45;entryY=0.006;entryDx=0;entryDy=0;entryPerimeter=0;exitX=1;exitY=0.5;exitDx=0;exitDy=0;" edge="1" parent="1" source="GTOpHmHQMbmmkZXh6cPo-4" target="45236fa5f4b8e91a-3">
          <mxGeometry width="50" height="50" relative="1" as="geometry">
            <mxPoint x="750" y="-110" as="sourcePoint" />
            <mxPoint x="800" y="-160" as="targetPoint" />
          </mxGeometry>
        </mxCell>
        <mxCell id="GTOpHmHQMbmmkZXh6cPo-9" value="" style="shape=flexArrow;endArrow=classic;html=1;entryX=0.213;entryY=0.094;entryDx=0;entryDy=0;entryPerimeter=0;" edge="1" parent="1" source="q1sMRRUCjDqgYPKOwa1s-16" target="45236fa5f4b8e91a-5">
          <mxGeometry width="50" height="50" relative="1" as="geometry">
            <mxPoint x="750" y="100" as="sourcePoint" />
            <mxPoint x="800" y="50" as="targetPoint" />
          </mxGeometry>
        </mxCell>
      </root>
    </mxGraphModel>
  </diagram>
</mxfile>
